# xmcd
# 
# Track frame offsets:
#	182
#	22547
#	39222
#	55890
#	80282
#	99190
#	118447
#	138487
#	150837
#	174202
#
# Disc length: 2612 seconds
#
# Revision: 1
# Processed by: cddbd v1.4PL0 Copyright (c) Steve Scherf et al.
# Submitted via: Audio-CD-Archiv 2.10.446
#
DISCID=640a320a
DTITLE=Jovino Dos Santos - Nornas Et Coladeras Du Cap Vert
DYEAR=1900
DGENRE=country
TTITLE0=Chiquinha
TTITLE1=Nha Terra... Mindelo
TTITLE2=Felicidade D'Povo
TTITLE3=Amor Sincero
TTITLE4=Africa Memâe
TTITLE5=Paga Culpa
TTITLE6=Cabo Verde
TTITLE7=Roga pa Sabta Barba
TTITLE8=Pena D'Um Emigrante
TTITLE9=Mâe
EXTD=
EXTT0=
EXTT1=
EXTT2=
EXTT3=
EXTT4=
EXTT5=
EXTT6=
EXTT7=
EXTT8=
EXTT9=
PLAYORDER=
